<svg width="128" height="42" viewBox="0 0 128 42" fill="none" xmlns="http://www.w3.org/2000/svg">
<path d="M0.554087 0.00473459C4.02286 0.236252 27.6176 3.93654 39.1835 6.71275C50.7474 9.48897 62.7764 25.4477 65.5526 26.1423C68.3288 26.8368 81.7429 25.2162 93.3088 24.2921C104.873 23.366 127.078 36.0895 127.078 36.0895C127.078 40.9474 104.641 33.5448 96.7775 33.0818C88.9119 32.6188 76.6534 35.1635 74.1087 37.2451C71.564 39.3268 66.7082 42.103 62.5449 41.8715C58.3816 41.64 46.5841 33.3133 45.4285 31.6947C44.2709 30.0761 50.2864 29.3815 50.2864 29.3815C50.2864 29.3815 50.2864 29.3815 44.736 22.442C39.1856 15.5024 26.9251 12.2652 18.83 10.1835C10.7328 8.09986 -2.91668 -0.226783 0.554087 0.00473459Z" fill="#00336B"/>
</svg>
