<svg width="114" height="102" viewBox="0 0 114 102" fill="none" xmlns="http://www.w3.org/2000/svg">
<path d="M99.0663 51.9881C97.1577 48.5129 88.2869 39.8584 79.0918 31.3533C83.082 27.5439 88.8471 28.7705 87.2314 26.2113C84.4638 21.8299 76.4422 21.2265 70.6673 23.6639C66.0638 19.5105 61.9223 15.8368 59.2393 13.4526C49.8653 5.12038 43.7464 4.49728 26.6909 4.49728C9.63539 4.49728 0 0 0 0C3.1253 9.46043 22.1327 10.9798 33.7199 12.1513C43.316 13.1223 53.3896 22.4491 61.8633 31.2746C57.9341 34.4078 54.3528 34.9287 52.2064 36.1061C48.171 38.3193 52.9375 40.5385 60.3577 40.4088C63.2373 40.3577 66.2073 39.597 68.9002 38.5277C77.9007 46.4844 93.5567 52.281 98.3075 70.4785C103.318 89.6687 113.397 101.985 113.397 101.985C107.801 95.0839 102.479 58.2033 99.0663 51.9881Z" fill="#00336B"/>
</svg>
